<svg id="Layer_1" data-name="Layer 1" xmlns="http://www.w3.org/2000/svg" viewBox="0 0 118.35 128"><defs><style>.cls-1{fill:#b3e2f5;}.cls-2{fill:#01ab5c;}.cls-3{fill:#0f6c38;}.cls-4{fill:#0c8845;}.cls-5{fill:#d6ebdc;}.cls-6{fill:#99d2af;}.cls-7{fill:#cbded0;}</style></defs><path class="cls-1" d="M62.71,128a1.27,1.27,0,0,0-.37-.1c-1.49-.05-3,0-4.46-.15-2-.16-3.9-.39-5.82-.7a61.16,61.16,0,0,1-10.66-2.76,64.44,64.44,0,0,1-21.17-12.54,62.93,62.93,0,0,1-7.57-8A63.83,63.83,0,0,1,4.91,91.3,6.67,6.67,0,0,1,4,88.05a3.85,3.85,0,0,1,4.34-3.46A4.26,4.26,0,0,1,11.5,87.4a50.73,50.73,0,0,0,5.19,9.08,54.23,54.23,0,0,0,7,8.14,57.09,57.09,0,0,0,15,10.36,53,53,0,0,0,13.83,4.42c2.1.35,4.22.58,6.33.8a23.3,23.3,0,0,0,3.82.2q4-.21,8.07-.65a47.26,47.26,0,0,0,10.47-2.5,56.5,56.5,0,0,0,22.94-15,53.38,53.38,0,0,0,7.66-10.51c.92-1.69,1.75-3.43,2.58-5.16A3.84,3.84,0,0,1,119,84.22a3.7,3.7,0,0,1,2.82,3.34,5.64,5.64,0,0,1-.58,2.59,65.6,65.6,0,0,1-7.78,13,60.38,60.38,0,0,1-6.76,7.45,64.52,64.52,0,0,1-24.11,14.26,62.54,62.54,0,0,1-10.1,2.38,54.64,54.64,0,0,1-9,.69,2.05,2.05,0,0,0-.48.1Z" transform="translate(-3.52)"/><path class="cls-1" d="M62.72,0c2.13.11,4.19.14,6.23.33A64.08,64.08,0,0,1,99.26,11.42a64.53,64.53,0,0,1,6.86,5.5A63.39,63.39,0,0,1,116.8,29.68a58.72,58.72,0,0,1,4.78,9,3.77,3.77,0,0,1-3.4,5.19,4,4,0,0,1-3.81-2.67,54.49,54.49,0,0,0-6.74-11.45,53.65,53.65,0,0,0-6.54-7.18A55.41,55.41,0,0,0,90.34,14.8a57.72,57.72,0,0,0-10.2-4.45,58.51,58.51,0,0,0-8.93-2.11A56.33,56.33,0,0,0,60,7.68a52.1,52.1,0,0,0-9.31,1.25,56.88,56.88,0,0,0-14.24,5.22,50.62,50.62,0,0,0-9.18,6.09c-1.78,1.52-3.54,3.07-5.18,4.75a51.47,51.47,0,0,0-8.16,10.9c-1.06,1.9-2,3.87-2.92,5.83A4.51,4.51,0,0,1,9.22,43.9a3.91,3.91,0,0,1-4.42-.43A3.85,3.85,0,0,1,3.85,39a63.39,63.39,0,0,1,8.48-14.4c1.25-1.58,2.61-3.08,4-4.57A59.87,59.87,0,0,1,28.66,9.88,63.4,63.4,0,0,1,40.54,4a61.32,61.32,0,0,1,10.89-3C53.34.72,55.27.5,57.2.33S60.92.1,62.72,0Z" transform="translate(-3.52)"/><path class="cls-2" d="M71,42.71a5,5,0,1,1-10,0,5,5,0,0,1,10,0Z" transform="translate(-3.52)"/><path class="cls-3" d="M50.29,33.54a5,5,0,1,1-5,5A5,5,0,0,1,50.29,33.54Z" transform="translate(-3.52)"/><path class="cls-3" d="M78.41,43.55a5,5,0,1,1,5-5A5,5,0,0,1,78.41,43.55Z" transform="translate(-3.52)"/><path class="cls-2" d="M51.13,93.62a5,5,0,1,1,5-5A5,5,0,0,1,51.13,93.62Z" transform="translate(-3.52)"/><path class="cls-3" d="M35.1,77.05a5,5,0,1,1-5,4.93A5,5,0,0,1,35.1,77.05Z" transform="translate(-3.52)"/><path class="cls-4" d="M71.33,93.62a5,5,0,1,1-5-5A5,5,0,0,1,71.33,93.62Z" transform="translate(-3.52)"/><path class="cls-3" d="M76.38,90.29a5,5,0,1,1,5-5A5,5,0,0,1,76.38,90.29Z" transform="translate(-3.52)"/><path class="cls-2" d="M78.39,103a5,5,0,1,1,5-5A5,5,0,0,1,78.39,103Z" transform="translate(-3.52)"/><path class="cls-2" d="M42.4,43a5,5,0,1,1-5-5A5,5,0,0,1,42.4,43Z" transform="translate(-3.52)"/><path class="cls-5" d="M96.66,93a5,5,0,1,1-.07,10,5,5,0,0,1-4.9-5A5,5,0,0,1,96.66,93Z" transform="translate(-3.52)"/><path class="cls-6" d="M57.46,18.54a4.89,4.89,0,0,1-5,4.95,5,5,0,0,1-5-5,5,5,0,0,1,5-5A5,5,0,0,1,57.46,18.54Z" transform="translate(-3.52)"/><path class="cls-5" d="M116.65,66.83a5,5,0,1,1-4.86-5A4.93,4.93,0,0,1,116.65,66.83Z" transform="translate(-3.52)"/><path class="cls-5" d="M30.48,30.81a5,5,0,1,1,4.91,5.05A4.91,4.91,0,0,1,30.48,30.81Z" transform="translate(-3.52)"/><path class="cls-6" d="M104,80.3a4.88,4.88,0,0,1,4.93,5.11A5,5,0,1,1,104,80.3Z" transform="translate(-3.52)"/><path class="cls-5" d="M40,98a5,5,0,0,1-4.95-5,5,5,0,1,1,10,.19A5,5,0,0,1,40,98Z" transform="translate(-3.52)"/><path class="cls-6" d="M55.53,105.1a5,5,0,0,1-5-5,5,5,0,1,1,10,.12A4.92,4.92,0,0,1,55.53,105.1Z" transform="translate(-3.52)"/><path class="cls-6" d="M111.68,41.81a5,5,0,1,1-5-5A4.9,4.9,0,0,1,111.68,41.81Z" transform="translate(-3.52)"/><path class="cls-5" d="M97,63.13a5,5,0,1,1-5-5A4.85,4.85,0,0,1,97,63.13Z" transform="translate(-3.52)"/><path class="cls-5" d="M86.42,101.06a5,5,0,0,1,5,5,5,5,0,1,1-10-.19A5,5,0,0,1,86.42,101.06Z" transform="translate(-3.52)"/><path class="cls-7" d="M44.6,105.13a5,5,0,0,1-10,0,5,5,0,1,1,10,0Z" transform="translate(-3.52)"/><path class="cls-6" d="M93.05,45.15a5,5,0,0,1-5-5,5,5,0,1,1,10,.09A4.93,4.93,0,0,1,93.05,45.15Z" transform="translate(-3.52)"/><path class="cls-5" d="M93.09,29a5,5,0,0,1,5-4.92,5,5,0,0,1,4.92,5,5,5,0,1,1-10-.12Z" transform="translate(-3.52)"/><path class="cls-5" d="M65.16,9.25a4.93,4.93,0,0,1,4.91,5.17,5,5,0,0,1-5,4.8,5,5,0,1,1,.07-10Z" transform="translate(-3.52)"/><path class="cls-6" d="M71,21.84a4.91,4.91,0,0,1,5,5,5,5,0,1,1-10,0A5,5,0,0,1,71,21.84Z" transform="translate(-3.52)"/><path class="cls-5" d="M45.05,20.14a5,5,0,0,1-5,5,5,5,0,0,1,.07-10A5,5,0,0,1,45.05,20.14Z" transform="translate(-3.52)"/><path class="cls-7" d="M16.79,49.38a5,5,0,1,1,5-4.94A5,5,0,0,1,16.79,49.38Z" transform="translate(-3.52)"/><path class="cls-6" d="M24,86.73a5,5,0,1,1-10,0,5,5,0,0,1,10,0Z" transform="translate(-3.52)"/><path class="cls-6" d="M59.25,24.36a5,5,0,1,1-5,5A4.94,4.94,0,0,1,59.25,24.36Z" transform="translate(-3.52)"/><path class="cls-5" d="M55.26,111.42a5,5,0,0,1-5,4.93,5,5,0,1,1,.19-10A5,5,0,0,1,55.26,111.42Z" transform="translate(-3.52)"/><path class="cls-6" d="M75.76,61.75a5,5,0,0,1,5-5,5,5,0,1,1,0,10A4.93,4.93,0,0,1,75.76,61.75Z" transform="translate(-3.52)"/><path class="cls-7" d="M90.69,28.59a5,5,0,1,1-5-5A5,5,0,0,1,90.69,28.59Z" transform="translate(-3.52)"/><path class="cls-6" d="M86,17.64a4.85,4.85,0,0,1-5,4.93,5,5,0,0,1-5-5,5,5,0,0,1,5.08-5A4.94,4.94,0,0,1,86,17.64Z" transform="translate(-3.52)"/><path class="cls-6" d="M89.68,81.79a5,5,0,1,1-.1,10,5,5,0,1,1,.1-10Z" transform="translate(-3.52)"/><path class="cls-6" d="M29,91.76a4.86,4.86,0,0,1,5,4.95,5,5,0,0,1-5,5,5,5,0,0,1-5-5A4.94,4.94,0,0,1,29,91.76Z" transform="translate(-3.52)"/><path class="cls-6" d="M58.21,112.24a5,5,0,1,1,5,5.07A5,5,0,0,1,58.21,112.24Z" transform="translate(-3.52)"/><path class="cls-5" d="M70,111.29a5,5,0,0,1,10,0,5,5,0,0,1-5.11,5A4.93,4.93,0,0,1,70,111.29Z" transform="translate(-3.52)"/><path class="cls-6" d="M63.46,77.09a4.89,4.89,0,0,1,5,5,5,5,0,0,1-5.05,5,5,5,0,0,1-5-5.08A5,5,0,0,1,63.46,77.09Z" transform="translate(-3.52)"/><path class="cls-3" d="M45.3,69.22a5,5,0,1,1-5,4.93A5,5,0,0,1,45.3,69.22Z" transform="translate(-3.52)"/><path class="cls-2" d="M61.13,69.22a5,5,0,0,1-10,0,5,5,0,0,1,5-5A5,5,0,0,1,61.13,69.22Z" transform="translate(-3.52)"/><path class="cls-2" d="M55.29,56.78a5,5,0,1,1-10,0,5,5,0,0,1,10,0Z" transform="translate(-3.52)"/><path class="cls-3" d="M84.63,79.24a5,5,0,1,1,5-5A5,5,0,0,1,84.63,79.24Z" transform="translate(-3.52)"/><path class="cls-3" d="M65.08,64.23a5,5,0,1,1,5-5A5,5,0,0,1,65.08,64.23Z" transform="translate(-3.52)"/><path class="cls-6" d="M71.41,66.8a4.89,4.89,0,0,1,5,5,4.94,4.94,0,0,1-5.05,5,5,5,0,0,1-5-5.08A5,5,0,0,1,71.41,66.8Z" transform="translate(-3.52)"/><path class="cls-5" d="M19,66.74a5,5,0,1,1,4.91,5.05A4.91,4.91,0,0,1,19,66.74Z" transform="translate(-3.52)"/><path class="cls-5" d="M103.91,73.17c.22,2.66-2.38,5-5,5a5,5,0,1,1,.14-10A4.88,4.88,0,0,1,103.91,73.17Z" transform="translate(-3.52)"/><path class="cls-5" d="M19,58.17c.21,2.66-2.39,5-5,4.95a5,5,0,1,1,.14-10A4.89,4.89,0,0,1,19,58.17Z" transform="translate(-3.52)"/><path class="cls-6" d="M106.68,56.75a5,5,0,1,1-10,0,5,5,0,0,1,10,0Z" transform="translate(-3.52)"/><path class="cls-6" d="M26.78,48.14a4.92,4.92,0,0,1,5,5,5,5,0,1,1-10,0A5,5,0,0,1,26.78,48.14Z" transform="translate(-3.52)"/><path class="cls-6" d="M37.43,58.58a4.88,4.88,0,0,1,5,5,5,5,0,0,1-5,5,5,5,0,0,1-5-5.08A5,5,0,0,1,37.43,58.58Z" transform="translate(-3.52)"/><path class="cls-7" d="M91.35,51.78a5,5,0,0,1-10,0,5,5,0,1,1,10,0Z" transform="translate(-3.52)"/></svg>